<svg xmlns="http://www.w3.org/2000/svg" viewBox="0 0 192 192" width="192" height="192">
  <rect width="192" height="192" fill="#04040f"/>
  <polygon points="96,20 148,50 168,96 148,142 96,172 44,142 24,96 44,50" fill="none" stroke="#00ffcc" stroke-width="3" opacity="0.8"/>
  <polygon points="96,20 148,50 124,85 68,85 44,50" fill="#00ffcc" opacity="0.3"/>
  <polygon points="96,20 148,50 124,85 68,85 44,50" fill="none" stroke="#00ffcc" stroke-width="2"/>
  <polygon points="68,85 124,85 148,142 44,142" fill="#00ffcc" opacity="0.15"/>
  <polygon points="68,85 124,85 148,142 44,142" fill="none" stroke="#00ffcc" stroke-width="1.5"/>
  <line x1="96" y1="20" x2="96" y2="172" stroke="#00ffcc" stroke-width="0.5" opacity="0.2"/>
  <line x1="24" y1="96" x2="168" y2="96" stroke="#00ffcc" stroke-width="0.5" opacity="0.2"/>
  <circle cx="96" cy="96" r="8" fill="#00ffcc" opacity="0.9"/>
  <circle cx="96" cy="96" r="14" fill="none" stroke="#00ffcc" stroke-width="1" opacity="0.4"/>
  <text x="96" y="186" font-family="monospace" font-size="10" fill="#00ffcc44" text-anchor="middle">GEM VITALE</text>
</svg>